<mxfile host="app.diagrams.net" modified="2024-01-19T07:58:05.936Z" agent="Mozilla/5.0 (Windows NT 10.0; Win64; x64) AppleWebKit/537.36 (KHTML, like Gecko) Chrome/120.0.0.0 Safari/537.36" etag="yO9Sbza8RALv8HmM6v8-" version="22.1.20" type="device">
  <diagram name="Page-1" id="rc0uClVn3gRNKsO3K7OQ">
    <mxGraphModel dx="1434" dy="746" grid="1" gridSize="10" guides="1" tooltips="1" connect="1" arrows="1" fold="1" page="1" pageScale="1" pageWidth="850" pageHeight="1100" math="0" shadow="0">
      <root>
        <mxCell id="0" />
        <mxCell id="1" parent="0" />
        <mxCell id="3owVx1RrtEiIeNH_LaK8-30" value="&lt;font style=&quot;font-size: 18px;&quot;&gt;reallyold&lt;/font&gt;" style="rounded=0;whiteSpace=wrap;html=1;labelPosition=center;verticalLabelPosition=top;align=center;verticalAlign=bottom;" vertex="1" parent="1">
          <mxGeometry x="120" y="90" width="220" height="100" as="geometry" />
        </mxCell>
        <mxCell id="3owVx1RrtEiIeNH_LaK8-31" value="O1&lt;br&gt;G_OLD" style="ellipse;whiteSpace=wrap;html=1;aspect=fixed;fillColor=#647687;fontColor=#ffffff;strokeColor=#314354;" vertex="1" parent="1">
          <mxGeometry x="140" y="100" width="80" height="80" as="geometry" />
        </mxCell>
        <mxCell id="3owVx1RrtEiIeNH_LaK8-33" style="edgeStyle=orthogonalEdgeStyle;rounded=0;orthogonalLoop=1;jettySize=auto;html=1;exitX=0;exitY=0.5;exitDx=0;exitDy=0;entryX=1;entryY=0.5;entryDx=0;entryDy=0;" edge="1" parent="1" source="3owVx1RrtEiIeNH_LaK8-32" target="3owVx1RrtEiIeNH_LaK8-31">
          <mxGeometry relative="1" as="geometry" />
        </mxCell>
        <mxCell id="3owVx1RrtEiIeNH_LaK8-32" value="O2&lt;br&gt;G_OLD" style="ellipse;whiteSpace=wrap;html=1;aspect=fixed;fillColor=#647687;fontColor=#ffffff;strokeColor=#314354;" vertex="1" parent="1">
          <mxGeometry x="240" y="100" width="80" height="80" as="geometry" />
        </mxCell>
        <mxCell id="3owVx1RrtEiIeNH_LaK8-35" style="edgeStyle=orthogonalEdgeStyle;rounded=0;orthogonalLoop=1;jettySize=auto;html=1;exitX=0.5;exitY=1;exitDx=0;exitDy=0;entryX=0.5;entryY=0;entryDx=0;entryDy=0;" edge="1" parent="1" source="3owVx1RrtEiIeNH_LaK8-34" target="3owVx1RrtEiIeNH_LaK8-32">
          <mxGeometry relative="1" as="geometry" />
        </mxCell>
        <mxCell id="3owVx1RrtEiIeNH_LaK8-34" value="&lt;font style=&quot;font-size: 16px;&quot;&gt;g-&amp;gt;allgc&lt;/font&gt;" style="rounded=1;whiteSpace=wrap;html=1;" vertex="1" parent="1">
          <mxGeometry x="235" y="10" width="90" height="30" as="geometry" />
        </mxCell>
      </root>
    </mxGraphModel>
  </diagram>
</mxfile>
